<svg width="300" height="60" viewBox="0 0 300 60" version="1.1" xmlns="http://www.w3.org/2000/svg"><g id="Page-3" stroke="none" stroke-width="1" fill="none" fill-rule="evenodd"><g id="Landing-page" transform="translate(-1140 -5546)"><g id="Group-8" transform="translate(1140 5546)"><path id="Rectangle" fill="#F3F3F3" fill-rule="nonzero" d="M0 0h300v60H0z"/><path id="Rectangle" fill="#5AC8BD" fill-rule="nonzero" d="M0 50h300v10H0z"/><path d="M73.78 33v-8.42L78.911 33h2.637V20.203H78.92v8.438l-5.142-8.438h-2.636V33h2.636zm14.288.176c.79 0 1.511-.151 2.162-.453.65-.302 1.166-.722 1.547-1.261l-1.249-1.398c-.55.71-1.315 1.064-2.293 1.064-.633 0-1.156-.188-1.57-.563-.412-.375-.66-.873-.742-1.494h6.056v-1.037c0-1.506-.374-2.669-1.12-3.49-.748-.82-1.772-1.23-3.073-1.23-.867 0-1.639.204-2.316.611-.676.408-1.2.988-1.568 1.74-.37.753-.554 1.607-.554 2.563v.246c0 1.423.438 2.563 1.314 3.419.876.855 2.011 1.283 3.406 1.283zm1.415-5.836h-3.534c.088-.633.289-1.12.602-1.46.314-.339.723-.509 1.226-.509.54 0 .956.154 1.249.462.293.307.445.742.457 1.305v.202zm8.32 5.836c.791 0 1.512-.151 2.162-.453.65-.302 1.166-.722 1.547-1.261l-1.248-1.398c-.55.71-1.315 1.064-2.294 1.064-.633 0-1.156-.188-1.569-.563-.413-.375-.66-.873-.743-1.494h6.056v-1.037c0-1.506-.373-2.669-1.12-3.49-.748-.82-1.771-1.23-3.072-1.23-.867 0-1.64.204-2.316.611-.677.408-1.2.988-1.569 1.74-.37.753-.554 1.607-.554 2.563v.246c0 1.423.438 2.563 1.314 3.419.876.855 2.011 1.283 3.406 1.283zm1.415-5.836h-3.533c.088-.633.288-1.12.602-1.46.313-.339.722-.509 1.226-.509.539 0 .955.154 1.248.462.293.307.445.742.457 1.305v.202zm7.257 5.836c.996 0 1.81-.396 2.443-1.187l.123 1.011h2.294V19.5h-2.548v4.852c-.604-.692-1.369-1.038-2.294-1.038-1.155 0-2.064.44-2.73 1.319-.664.879-.997 2.06-.997 3.542 0 1.57.338 2.796 1.015 3.678.677.882 1.575 1.323 2.694 1.323zm.65-2.057c-.591 0-1.043-.237-1.353-.712-.31-.474-.466-1.157-.466-2.048 0-1.986.612-2.98 1.837-2.98.78 0 1.327.332 1.644.994v3.753c-.323.662-.876.993-1.662.993zM120.277 33v-6.759c.334-.574.873-.861 1.617-.861.545 0 .935.13 1.17.391.234.26.35.664.35 1.208V33h2.54v-6.09c-.028-2.397-1.074-3.596-3.137-3.596-1.02 0-1.866.405-2.54 1.213V19.5h-2.54V33h2.54zm11.977.176c.79 0 1.511-.151 2.162-.453.65-.302 1.166-.722 1.547-1.261l-1.248-1.398c-.551.71-1.316 1.064-2.294 1.064-.633 0-1.156-.188-1.57-.563-.412-.375-.66-.873-.742-1.494h6.056v-1.037c0-1.506-.374-2.669-1.12-3.49-.748-.82-1.772-1.23-3.072-1.23-.868 0-1.64.204-2.316.611-.677.408-1.2.988-1.57 1.74-.368.753-.553 1.607-.553 2.563v.246c0 1.423.438 2.563 1.314 3.419.876.855 2.011 1.283 3.406 1.283zm1.415-5.836h-3.533c.088-.633.288-1.12.602-1.46.313-.339.722-.509 1.226-.509.539 0 .955.154 1.248.462.293.307.445.742.457 1.305v.202zm6.624 5.66V19.5h-2.549V33h2.549zm4.638 3.656v-4.482c.592.668 1.368 1.002 2.329 1.002 1.13 0 2.029-.441 2.694-1.323.665-.882.997-2.055.997-3.52v-.132c0-1.523-.325-2.719-.975-3.586-.65-.867-1.562-1.3-2.734-1.3-.99 0-1.793.369-2.408 1.107l-.088-.932h-2.355v13.166h2.54zm1.66-5.528c-.796 0-1.35-.314-1.66-.94v-3.894c.299-.61.846-.914 1.643-.914.598 0 1.054.24 1.367.72.314.481.47 1.164.47 2.048 0 1.987-.606 2.98-1.82 2.98zm10.264-2.057l.035-.536c.064-.574.32-1.075.765-1.503l.712-.677c.556-.539.946-1.03 1.168-1.472.223-.442.334-.912.334-1.41 0-1.096-.342-1.944-1.028-2.545-.685-.6-1.65-.9-2.891-.9-1.231 0-2.202.316-2.914.949-.712.632-1.074 1.508-1.086 2.627h2.55c.011-.468.147-.836.408-1.103.26-.266.608-.4 1.042-.4.914 0 1.37.496 1.37 1.486 0 .328-.087.64-.263.936-.176.296-.529.68-1.06 1.151-.53.472-.894.951-1.093 1.437-.2.487-.3 1.14-.3 1.96h2.25zm-1.081 4.034c.427 0 .772-.126 1.032-.377.261-.252.392-.572.392-.958a1.29 1.29 0 00-.4-.972c-.267-.255-.608-.382-1.024-.382-.416 0-.758.127-1.024.382-.267.255-.4.579-.4.972 0 .386.13.706.391.958.26.251.605.377 1.033.377z" id="Needhelp?" fill="#000" fill-rule="nonzero"/><g id="icon/message" transform="translate(10 5)"><path id="Bounds" d="M0 0h40v40H0z"/><g id="ic_feedback" stroke-width="1" fill-rule="evenodd"><path id="Bounds" d="M0 0h40v40H0z"/><path d="M31.66 3.333a5 5 0 015.007 5V25a5 5 0 01-5 5H10l-6.667 6.667.015-28.343c0-2.752 2.243-4.99 5.008-4.99zM26.668 15a1.667 1.667 0 100 3.333 1.667 1.667 0 000-3.333zM20 15a1.667 1.667 0 100 3.333A1.667 1.667 0 0020 15zm-6.667 0a1.667 1.667 0 100 3.333 1.667 1.667 0 000-3.333z" id="Combined-Shape" fill="#02A090" fill-rule="nonzero"/></g></g></g></g></g></svg>