<svg width="1440" height="194" viewBox="0 0 1440 194" version="1.1" xmlns="http://www.w3.org/2000/svg"><g id="Page-3" stroke="none" stroke-width="1" fill="none" fill-rule="evenodd"><g id="Landing-page" transform="translate(0 -5093)"><g id="Group-13" transform="translate(0 5012)"><g id="Group-3" transform="matrix(-1 0 0 1 1510 18)" fill="#82D0C8"><path d="M61 107.01C183.577 66.676 303.805 54.505 421.683 70.5c165.468 22.453 207.79 79.679 446.242 111.848 86.805 11.71 248.497 14.598 485.075 8.663v60H61v-144z" id="Rectangle-Copy-7"/></g><g id="Group-3" transform="translate(87 8)" fill="#FFF"><path d="M61 122.01C183.577 81.676 303.805 69.505 421.683 85.5c165.468 22.453 207.79 79.679 446.242 111.848 86.805 11.71 248.497 14.598 485.075 8.663v60H61v-144z" id="Rectangle-Copy-7"/></g><g id="Group-5" fill="#02A090" stroke="#02A090"><path d="M.5 130.358V273.5h1439v-58.993c-232.338 3.022-396.854-1.318-493.56-13.023-101.412-12.276-179.853-26.775-275.446-48.969-18.21-4.228-81.02-19.188-78.56-18.606-86.31-20.398-143.922-31.77-217.198-41.304C248.116 76.132 123.373 88.716.5 130.358z" id="Rectangle"/></g></g></g></g></svg>