<svg width="24" height="24" viewBox="0 0 24 24" version="1.1" xmlns="http://www.w3.org/2000/svg"><g id="Symbols" stroke="none" stroke-width="1" fill="none" fill-rule="evenodd"><g id="icon/expand_more_alt"><path id="Bounds" d="M0 0h24v24H0z"/><path d="M17.707 13.3l-5.006-5.015A.986.986 0 0012 8a.944.944 0 00-.693.285l-5.014 5.014A.956.956 0 006 14c0 .277.098.508.293.693l.577.578a.916.916 0 00.693.293.916.916 0 00.694-.293L12 11.535l3.743 3.736a.916.916 0 00.694.293.956.956 0 00.7-.293l.578-.578A.944.944 0 0018 14a.955.955 0 00-.293-.7z" id="Shape" fill="#02a090" transform="matrix(1 0 0 -1 0 23.564)"/></g></g></svg>