<svg width="34" height="34" viewBox="0 0 34 34" version="1.1" xmlns="http://www.w3.org/2000/svg"><g id="Page-3" stroke="none" stroke-width="1" fill="none" fill-rule="evenodd"><g id="Landing-page" transform="translate(-737 -3213)"><g id="Group-9" transform="translate(734 3210)"><g id="Action/ic_face"><g id="ic_face"><path id="Bounds" d="M0 0h40v40H0z"/><path d="M15 19.583a2.084 2.084 0 10.002 4.169A2.084 2.084 0 0015 19.583zm10 0a2.084 2.084 0 10.002 4.169A2.084 2.084 0 0025 19.583zm-5-16.25C10.8 3.333 3.333 10.8 3.333 20c0 9.2 7.467 16.667 16.667 16.667 9.2 0 16.667-7.467 16.667-16.667C36.667 10.8 29.2 3.333 20 3.333zm0 30C12.65 33.333 6.667 27.35 6.667 20c0-.483.033-.967.083-1.433a16.77 16.77 0 008.683-8.95c3.017 4.266 7.984 7.05 13.6 7.05 1.3 0 2.55-.15 3.75-.434.35 1.184.55 2.45.55 3.767 0 7.35-5.983 13.333-13.333 13.333z" id="Icon" fill="#000"/></g></g></g></g></g></svg>