<svg width="60" height="80" viewBox="0 0 60 80" version="1.1" xmlns="http://www.w3.org/2000/svg"><g id="Page-3" stroke="none" stroke-width="1" fill="none" fill-rule="evenodd"><g id="Contact" transform="translate(-280 -2006)"><g id="Group-2" transform="translate(200 1922)"><g id="AV/ic_mic" transform="translate(60 76)"><g id="ic_mic"><path id="Bounds" d="M0 0h100v100H0z"/><path d="M50 58.333c6.917 0 12.458-5.583 12.458-12.5l.042-25c0-6.916-5.583-12.5-12.5-12.5s-12.5 5.584-12.5 12.5v25c0 6.917 5.583 12.5 12.5 12.5zm22.083-12.5c0 12.5-10.583 21.25-22.083 21.25-11.5 0-22.083-8.75-22.083-21.25h-7.084c0 14.209 11.334 25.959 25 28V87.5h8.334V73.833c13.666-2 25-13.75 25-28h-7.084z" id="Icon" fill="#000"/></g></g></g></g></g></svg>