<svg version="1.1" id="Layer_1" xmlns="http://www.w3.org/2000/svg" x="0" y="0" viewBox="0 0 23 31" xml:space="preserve"><path d="M4.27 16.27H6.2c1.45 0 2.16.72 2.16 2.32v.56c0 1.49-.5 2.52-2.24 2.52h-.6v3.96H4.27v-9.36zm1.25 4.36h.46c.97 0 1.12-.58 1.12-1.52v-.48c0-.71-.14-1.32-1.01-1.32h-.57v3.32zm3.75-4.36h1.87c2 0 2.39 1.12 2.39 2.75v3.63c0 1.43-.24 2.97-2.42 2.97H9.27v-9.35zm1.25 8.29h.51c1.03 0 1.22-.62 1.22-1.7v-3.95c0-.95-.17-1.55-1.22-1.55h-.5v7.2zm4.14-8.29h3.48v1.16h-2.23v2.71h2.11v1.16h-2.11v4.32h-1.25v-9.35z"/><path d="M13.84.43H5.66A5.75 5.75 0 00-.09 6.18v19c0 3.18 2.57 5.75 5.75 5.75h11.08c3.18 0 5.75-2.57 5.75-5.75V8.75c0-.83-.34-1.62-.94-2.18L15.9 1.25a3 3 0 00-2.06-.82zm5.55 7.03h-3.36c-.55 0-1-.45-1-1V3.33l4.36 4.13zm1.11 17.72c0 2.07-1.68 3.75-3.75 3.75H5.66c-2.07 0-3.75-1.68-3.75-3.75v-19c0-2.07 1.68-3.75 3.75-3.75h7.37v4.03c0 1.65 1.35 3 3 3h4.46v15.72z"/></svg>